<?xml version="1.0" standalone="no"?>
<!DOCTYPE svg PUBLIC "-//W3C//DTD SVG 20010904//EN"
 "http://www.w3.org/TR/2001/REC-SVG-20010904/DTD/svg10.dtd">
<svg version="1.0" xmlns="http://www.w3.org/2000/svg"
 width="260.000000pt" height="260.000000pt" viewBox="0 0 260.000000 260.000000"
 preserveAspectRatio="xMidYMid meet">
<metadata>
Created by potrace 1.11, written by Peter Selinger 2001-2013
</metadata>
<g transform="translate(0.000000,260.000000) scale(0.100000,-0.100000)"
fill="#000000" stroke="none">
<path d="M0 1300 l0 -1300 1300 0 1300 0 0 1300 0 1300 -1300 0 -1300 0 0
-1300z m1397 1014 c161 -33 298 -109 422 -234 39 -40 70 -75 67 -77 -2 -2 -22
5 -44 16 -22 11 -80 33 -129 47 -106 32 -322 44 -426 25 -69 -13 -221 -61
-214 -67 2 -3 33 3 68 11 87 22 317 31 405 16 109 -19 232 -59 327 -108 84
-44 89 -48 119 -107 72 -143 108 -301 108 -479 0 -105 -1 -109 -18 -94 -56 51
-220 97 -427 122 -500 59 -1109 -1 -1247 -123 -17 -14 -18 -9 -18 95 0 287
101 544 287 730 195 195 465 280 720 227z m831 -67 c17 -10 32 -22 32 -27 0
-5 -36 -27 -79 -48 l-80 -39 47 -12 c57 -15 115 -53 155 -103 43 -54 32 -61
-82 -53 -126 8 -242 34 -259 58 -8 10 -39 48 -69 83 -65 76 -66 73 42 130 69
35 72 36 165 32 64 -3 106 -10 128 -21z m-1228 -1032 c56 -29 23 -71 -48 -60
-100 17 -144 44 -120 73 16 18 123 10 168 -13z m629 16 c19 -12 7 -39 -24 -51
-45 -17 -139 -28 -162 -19 -28 10 -30 35 -4 49 48 25 163 38 190 21z m-1080
-127 c96 -33 238 -63 342 -70 l86 -7 104 48 c144 67 180 67 314 1 116 -58 137
-59 328 -26 144 24 258 61 315 100 23 17 44 30 46 30 9 0 -38 -190 -66 -269
-113 -323 -349 -568 -613 -636 -79 -21 -242 -20 -320 0 -133 35 -285 130 -379
237 -49 54 -166 225 -166 240 0 5 27 -13 60 -40 186 -151 452 -229 687 -203
101 12 241 48 273 72 12 9 11 10 -5 4 -144 -48 -389 -50 -568 -5 -157 40 -365
158 -471 268 -31 32 -44 59 -67 136 -16 53 -31 120 -35 148 l-7 51 36 -27 c20
-15 68 -39 106 -52z"/>
</g>
</svg>
